<?xml version="1.0" encoding="UTF-8" standalone="no"?><svg xmlns="http://www.w3.org/2000/svg" xmlns:xlink="http://www.w3.org/1999/xlink" contentScriptType="application/ecmascript" contentStyleType="text/css" height="364px" preserveAspectRatio="none" style="width:463px;height:364px;" version="1.1" viewBox="0 0 463 364" width="463px" zoomAndPan="magnify"><defs><filter height="300%" id="fgx2x3advzv3x" width="300%" x="-1" y="-1"><feGaussianBlur result="blurOut" stdDeviation="2.0"/><feColorMatrix in="blurOut" result="blurOut2" type="matrix" values="0 0 0 0 0 0 0 0 0 0 0 0 0 0 0 0 0 0 .4 0"/><feOffset dx="4.0" dy="4.0" in="blurOut2" result="blurOut3"/><feBlend in="SourceGraphic" in2="blurOut3" mode="normal"/></filter></defs><g><!--cluster local--><polygon fill="#FFFFFF" filter="url(#fgx2x3advzv3x)" points="14,16,70,16,77,40,441,40,441,250,14,250,14,16" style="stroke: #000000; stroke-width: 1.5;"/><line style="stroke: #000000; stroke-width: 1.5;" x1="14" x2="77" y1="40" y2="40"/><text fill="#000000" font-family="courier" font-size="18" font-weight="bold" lengthAdjust="spacingAndGlyphs" textLength="50" x="18" y="33.8379">local</text><!--cluster pc--><polygon fill="#FFFFFF" filter="url(#fgx2x3advzv3x)" points="206,45,232,45,239,69,433,69,433,242,206,242,206,45" style="stroke: #000000; stroke-width: 1.5;"/><line style="stroke: #000000; stroke-width: 1.5;" x1="206" x2="239" y1="69" y2="69"/><text fill="#000000" font-family="courier" font-size="18" font-weight="bold" lengthAdjust="spacingAndGlyphs" textLength="20" x="210" y="62.8379">pc</text><!--cluster android--><polygon fill="#FFFFFF" filter="url(#fgx2x3advzv3x)" points="22,45,98,45,105,69,198,69,198,242,22,242,22,45" style="stroke: #000000; stroke-width: 1.5;"/><line style="stroke: #000000; stroke-width: 1.5;" x1="22" x2="105" y1="69" y2="69"/><text fill="#000000" font-family="courier" font-size="18" font-weight="bold" lengthAdjust="spacingAndGlyphs" textLength="70" x="26" y="62.8379">android</text><!--cluster cloud--><polygon fill="#FFFFFF" filter="url(#fgx2x3advzv3x)" points="130,265,186,265,193,289,262,289,262,352,130,352,130,265" style="stroke: #000000; stroke-width: 1.5;"/><line style="stroke: #000000; stroke-width: 1.5;" x1="130" x2="193" y1="289" y2="289"/><text fill="#000000" font-family="courier" font-size="18" font-weight="bold" lengthAdjust="spacingAndGlyphs" textLength="50" x="134" y="282.8379">cloud</text><!--class pc_cli--><rect fill="#F8F8F8" filter="url(#fgx2x3advzv3x)" height="50" id="pc_cli" style="stroke: #383838; stroke-width: 1.5;" width="88" x="337" y="74"/><ellipse cx="353" cy="91" fill="#C2C2C2" rx="12" ry="12" style="stroke: #383838; stroke-width: 1.0;"/><path d="M356.9063,93.1406 Q356.4531,98.4375 352.9531,98.4375 Q350.875,98.4375 349.75,96.3125 Q348.8281,94.5469 348.8281,91.4219 Q348.8281,88.25 349.8438,86.3594 Q350.9219,84.375 352.9531,84.375 Q356.1719,84.375 356.8438,89.0781 L354.5938,89.0781 Q354.2188,86.4688 352.9531,86.4688 Q351.125,86.4688 351.125,91.4219 Q351.125,96.3281 352.9688,96.3281 Q354.4688,96.3281 354.6406,93.1406 L356.9063,93.1406 Z "/><text fill="#000000" font-family="courier" font-size="18" lengthAdjust="spacingAndGlyphs" textLength="54" x="368" y="97.8379">pc_cli</text><line style="stroke: #383838; stroke-width: 1.5;" x1="338" x2="424" y1="108" y2="108"/><line style="stroke: #383838; stroke-width: 1.5;" x1="338" x2="424" y1="116" y2="116"/><!--class pc_gui--><rect fill="#F8F8F8" filter="url(#fgx2x3advzv3x)" height="50" id="pc_gui" style="stroke: #383838; stroke-width: 1.5;" width="88" x="214" y="74"/><ellipse cx="230" cy="91" fill="#C2C2C2" rx="12" ry="12" style="stroke: #383838; stroke-width: 1.0;"/><path d="M233.9063,93.1406 Q233.4531,98.4375 229.9531,98.4375 Q227.875,98.4375 226.75,96.3125 Q225.8281,94.5469 225.8281,91.4219 Q225.8281,88.25 226.8438,86.3594 Q227.9219,84.375 229.9531,84.375 Q233.1719,84.375 233.8438,89.0781 L231.5938,89.0781 Q231.2188,86.4688 229.9531,86.4688 Q228.125,86.4688 228.125,91.4219 Q228.125,96.3281 229.9688,96.3281 Q231.4688,96.3281 231.6406,93.1406 L233.9063,93.1406 Z "/><text fill="#000000" font-family="courier" font-size="18" lengthAdjust="spacingAndGlyphs" textLength="54" x="245" y="97.8379">pc_gui</text><line style="stroke: #383838; stroke-width: 1.5;" x1="215" x2="301" y1="108" y2="108"/><line style="stroke: #383838; stroke-width: 1.5;" x1="215" x2="301" y1="116" y2="116"/><!--class pc_daemon--><rect fill="#F8F8F8" filter="url(#fgx2x3advzv3x)" height="50" id="pc_daemon" style="stroke: #383838; stroke-width: 1.5;" width="115" x="225.5" y="184"/><ellipse cx="241.5" cy="201" fill="#C2C2C2" rx="12" ry="12" style="stroke: #383838; stroke-width: 1.0;"/><path d="M245.4063,203.1406 Q244.9531,208.4375 241.4531,208.4375 Q239.375,208.4375 238.25,206.3125 Q237.3281,204.5469 237.3281,201.4219 Q237.3281,198.25 238.3438,196.3594 Q239.4219,194.375 241.4531,194.375 Q244.6719,194.375 245.3438,199.0781 L243.0938,199.0781 Q242.7188,196.4688 241.4531,196.4688 Q239.625,196.4688 239.625,201.4219 Q239.625,206.3281 241.4688,206.3281 Q242.9688,206.3281 243.1406,203.1406 L245.4063,203.1406 Z "/><text fill="#000000" font-family="courier" font-size="18" lengthAdjust="spacingAndGlyphs" textLength="81" x="256.5" y="207.8379">pc_daemon</text><line style="stroke: #383838; stroke-width: 1.5;" x1="226.5" x2="339.5" y1="218" y2="218"/><line style="stroke: #383838; stroke-width: 1.5;" x1="226.5" x2="339.5" y1="226" y2="226"/><!--class android_gui--><rect fill="#F8F8F8" filter="url(#fgx2x3advzv3x)" height="50" id="android_gui" style="stroke: #383838; stroke-width: 1.5;" width="133" x="43.5" y="74"/><ellipse cx="59.5" cy="91" fill="#C2C2C2" rx="12" ry="12" style="stroke: #383838; stroke-width: 1.0;"/><path d="M63.4063,93.1406 Q62.9531,98.4375 59.4531,98.4375 Q57.375,98.4375 56.25,96.3125 Q55.3281,94.5469 55.3281,91.4219 Q55.3281,88.25 56.3438,86.3594 Q57.4219,84.375 59.4531,84.375 Q62.6719,84.375 63.3438,89.0781 L61.0938,89.0781 Q60.7188,86.4688 59.4531,86.4688 Q57.625,86.4688 57.625,91.4219 Q57.625,96.3281 59.4688,96.3281 Q60.9688,96.3281 61.1406,93.1406 L63.4063,93.1406 Z "/><text fill="#000000" font-family="courier" font-size="18" lengthAdjust="spacingAndGlyphs" textLength="99" x="74.5" y="97.8379">android_gui</text><line style="stroke: #383838; stroke-width: 1.5;" x1="44.5" x2="175.5" y1="108" y2="108"/><line style="stroke: #383838; stroke-width: 1.5;" x1="44.5" x2="175.5" y1="116" y2="116"/><!--class android_daemon--><rect fill="#F8F8F8" filter="url(#fgx2x3advzv3x)" height="50" id="android_daemon" style="stroke: #383838; stroke-width: 1.5;" width="160" x="30" y="184"/><ellipse cx="46" cy="201" fill="#C2C2C2" rx="12" ry="12" style="stroke: #383838; stroke-width: 1.0;"/><path d="M49.9063,203.1406 Q49.4531,208.4375 45.9531,208.4375 Q43.875,208.4375 42.75,206.3125 Q41.8281,204.5469 41.8281,201.4219 Q41.8281,198.25 42.8438,196.3594 Q43.9219,194.375 45.9531,194.375 Q49.1719,194.375 49.8438,199.0781 L47.5938,199.0781 Q47.2188,196.4688 45.9531,196.4688 Q44.125,196.4688 44.125,201.4219 Q44.125,206.3281 45.9688,206.3281 Q47.4688,206.3281 47.6406,203.1406 L49.9063,203.1406 Z "/><text fill="#000000" font-family="courier" font-size="18" lengthAdjust="spacingAndGlyphs" textLength="126" x="61" y="207.8379">android_daemon</text><line style="stroke: #383838; stroke-width: 1.5;" x1="31" x2="189" y1="218" y2="218"/><line style="stroke: #383838; stroke-width: 1.5;" x1="31" x2="189" y1="226" y2="226"/><!--class datastore--><rect fill="#F8F8F8" filter="url(#fgx2x3advzv3x)" height="50" id="datastore" style="stroke: #383838; stroke-width: 1.5;" width="115" x="138.5" y="294"/><ellipse cx="154.5" cy="311" fill="#C2C2C2" rx="12" ry="12" style="stroke: #383838; stroke-width: 1.0;"/><path d="M158.4063,313.1406 Q157.9531,318.4375 154.4531,318.4375 Q152.375,318.4375 151.25,316.3125 Q150.3281,314.5469 150.3281,311.4219 Q150.3281,308.25 151.3438,306.3594 Q152.4219,304.375 154.4531,304.375 Q157.6719,304.375 158.3438,309.0781 L156.0938,309.0781 Q155.7188,306.4688 154.4531,306.4688 Q152.625,306.4688 152.625,311.4219 Q152.625,316.3281 154.4688,316.3281 Q155.9688,316.3281 156.1406,313.1406 L158.4063,313.1406 Z "/><text fill="#000000" font-family="courier" font-size="18" lengthAdjust="spacingAndGlyphs" textLength="81" x="169.5" y="317.8379">datastore</text><line style="stroke: #383838; stroke-width: 1.5;" x1="139.5" x2="252.5" y1="328" y2="328"/><line style="stroke: #383838; stroke-width: 1.5;" x1="139.5" x2="252.5" y1="336" y2="336"/><!--link pc_cli to pc_daemon--><path d="M358.5168,124.2362 C343.7016,140.8656 324.2583,162.6897 308.8111,180.0284 " fill="none" id="pc_cli-pc_daemon" style="stroke: #383838; stroke-width: 1.0;"/><polygon fill="#383838" points="305.3786,183.8812,314.3521,179.8221,308.7046,180.1479,308.3788,174.5004,305.3786,183.8812" style="stroke: #383838; stroke-width: 1.0;"/><!--link pc_gui to pc_daemon--><path d="M263.7355,124.2362 C267.4196,140.4464 272.2256,161.5926 276.1156,178.7087 " fill="none" id="pc_gui-pc_daemon" style="stroke: #383838; stroke-width: 1.0;"/><polygon fill="#383838" points="277.2912,183.8812,279.1971,174.2185,276.1831,179.0055,271.396,175.9915,277.2912,183.8812" style="stroke: #383838; stroke-width: 1.0;"/><!--link android_gui to android_daemon--><path d="M110,124.2362 C110,140.4464 110,161.5926 110,178.7087 " fill="none" id="android_gui-android_daemon" style="stroke: #383838; stroke-width: 1.0;"/><polygon fill="#383838" points="110,183.8812,114,174.8812,110,178.8812,106,174.8812,110,183.8812" style="stroke: #383838; stroke-width: 1.0;"/><!--link pc_daemon to datastore--><path d="M263.0404,234.2362 C249.9987,250.7258 232.917,272.3233 219.2604,289.5903 " fill="none" id="pc_daemon-datastore" style="stroke: #383838; stroke-width: 1.0;"/><polygon fill="#383838" points="215.8667,293.8812,224.5871,289.3035,218.9684,289.9595,218.3124,284.3408,215.8667,293.8812" style="stroke: #383838; stroke-width: 1.0;"/><!--link android_daemon to datastore--><path d="M129.7301,234.2362 C142.622,250.7258 159.5073,272.3233 173.007,289.5903 " fill="none" id="android_daemon-datastore" style="stroke: #383838; stroke-width: 1.0;"/><polygon fill="#383838" points="176.3617,293.8812,173.9696,284.3272,173.2821,289.9422,167.6672,289.2546,176.3617,293.8812" style="stroke: #383838; stroke-width: 1.0;"/><!--
@startuml

skinparam monochrome true
skinparam defaultFontSize 18
skinparam defaultFontName courier

package local {
    package pc {
        class pc_cli {
        }
        class pc_gui {
        }
        class pc_daemon {
        }
    }

    package android {
        class android_gui {
      }
        class android_daemon {
        }
    }
}

package cloud {
    class datastore {
    }
}

pc_cli      - -> pc_daemon
pc_gui      - -> pc_daemon
android_gui - -> android_daemon

pc_daemon      - -> datastore
android_daemon - -> datastore

@enduml

PlantUML version 1.2018.02(Sat Mar 10 02:20:44 JST 2018)
(GPL source distribution)
Java Runtime: OpenJDK Runtime Environment
JVM: OpenJDK 64-Bit Server VM
Java Version: 1.8.0_192-b26
Operating System: Linux
OS Version: 4.12.14-1-MANJARO
Default Encoding: UTF-8
Language: en
Country: US
--></g></svg>