<?xml version="1.0" standalone="yes"?>

<svg version="1.1" viewBox="0.0 0.0 228.30708661417322 350.9396325459318" fill="none" stroke="none" stroke-linecap="square" stroke-miterlimit="10" xmlns="http://www.w3.org/2000/svg" xmlns:xlink="http://www.w3.org/1999/xlink"><clipPath id="p.0"><path d="m0 0l228.30708 0l0 350.93964l-228.30708 0l0 -350.93964z" clip-rule="nonzero"></path></clipPath><g clip-path="url(#p.0)"><path fill="#000000" fill-opacity="0.0" d="m0 0l228.30708 0l0 350.93964l-228.30708 0z" fill-rule="evenodd"></path><path fill="#cfe2f3" d="m0 37.969265l0 0c0 -20.969847 16.999418 -37.969265 37.969265 -37.969265l151.8725 0l0 0c10.070068 0 19.727707 4.0003214 26.848312 11.12094c7.1206207 7.120618 11.120941 16.778248 11.120941 26.848324l0 274.2977c0 20.969849 -16.99942 37.96924 -37.969254 37.96924l-151.8725 0c-20.969847 0 -37.969265 -16.99939 -37.969265 -37.96924z" fill-rule="evenodd"></path><path stroke="#000000" stroke-width="1.0" stroke-linejoin="round" stroke-linecap="butt" d="m0 37.969265l0 0c0 -20.969847 16.999418 -37.969265 37.969265 -37.969265l151.8725 0l0 0c10.070068 0 19.727707 4.0003214 26.848312 11.12094c7.1206207 7.120618 11.120941 16.778248 11.120941 26.848324l0 274.2977c0 20.969849 -16.99942 37.96924 -37.969254 37.96924l-151.8725 0c-20.969847 0 -37.969265 -16.99939 -37.969265 -37.96924z" fill-rule="evenodd"></path><path fill="#f1c232" d="m22.102362 184.46457l184.47244 0l0 138.55118l-184.47244 0z" fill-rule="evenodd"></path><path stroke="#000000" stroke-width="1.0" stroke-linejoin="round" stroke-linecap="butt" d="m22.102362 184.46457l184.47244 0l0 138.55118l-184.47244 0z" fill-rule="evenodd"></path><path fill="#000000" d="m33.96174 208.29082q-0.765625 -0.390625 -1.1875 -1.0625q-0.421875 -0.6875 -0.421875 -1.515625q0 -1.265625 0.953125 -2.171875q0.953125 -0.90625 2.4375 -0.90625q1.21875 0 2.109375 0.59375l1.796875 0q0.390625 0 0.453125 0.03125q0.078125 0.015625 0.09375 0.078125q0.0625 0.078125 0.0625 0.296875q0 0.234375 -0.046875 0.328125q-0.03125 0.046875 -0.109375 0.078125q-0.0625 0.03125 -0.453125 0.03125l-1.109375 0q0.515625 0.65625 0.515625 1.703125q0 1.1875 -0.90625 2.03125q-0.90625 0.84375 -2.4375 0.84375q-0.625 0 -1.28125 -0.1875q-0.421875 0.359375 -0.5625 0.625q-0.140625 0.25 -0.140625 0.4375q0 0.15625 0.15625 0.3125q0.15625 0.140625 0.59375 0.203125q0.265625 0.046875 1.296875 0.078125q1.921875 0.046875 2.484375 0.125q0.859375 0.125 1.375 0.640625q0.515625 0.515625 0.515625 1.28125q0 1.046875 -0.984375 1.96875q-1.453125 1.34375 -3.78125 1.34375q-1.78125 0 -3.015625 -0.796875q-0.7031269 -0.46875 -0.7031269 -0.96875q0 -0.21875 0.109375 -0.4375q0.15625 -0.34375 0.6406269 -0.96875q0.0625 -0.078125 0.953125 -1.0q-0.484375 -0.28125 -0.6875 -0.5q-0.203125 -0.234375 -0.203125 -0.53125q0 -0.3125 0.265625 -0.75q0.265625 -0.4375 1.21875 -1.234375zm1.625 -5.203125q-0.6875 0 -1.15625 0.546875q-0.46875 0.546875 -0.46875 1.671875q0 1.46875 0.640625 2.28125q0.484375 0.609375 1.21875 0.609375q0.703125 0 1.15625 -0.53125q0.46875 -0.53125 0.46875 -1.65625q0 -1.484375 -0.640625 -2.3125q-0.484375 -0.609375 -1.21875 -0.609375zm-1.703125 8.296875q-0.4375 0.46875 -0.671875 0.875q-0.21875 0.421875 -0.21875 0.765625q0 0.4375 0.546875 0.765625q0.921875 0.578125 2.671875 0.578125q1.671875 0 2.46875 -0.59375q0.796875 -0.578125 0.796875 -1.25q0 -0.484375 -0.484375 -0.6875q-0.484375 -0.203125 -1.90625 -0.234375q-2.09375 -0.0625 -3.203125 -0.21875zm19.390625 0l-3.359375 0l-4.265625 -5.875q-0.46875 0.015625 -0.765625 0.015625q-0.125 0 -0.265625 0q-0.140625 -0.015625 -0.28125 -0.015625l0 3.640625q0 1.1875 0.265625 1.484375q0.34375 0.40625 1.046875 0.40625l0.5 0l0 0.34375l-5.390625 0l0 -0.34375l0.46875 0q0.796875 0 1.140625 -0.515625q0.203125 -0.296875 0.203125 -1.375l0 -8.125q0 -1.1875 -0.265625 -1.46875q-0.359375 -0.40625 -1.078125 -0.40625l-0.46875 0l0 -0.34375l4.578125 0q2.0 0 2.953125 0.296875q0.953125 0.28125 1.609375 1.078125q0.671875 0.78125 0.671875 1.859375q0 1.15625 -0.765625 2.015625q-0.75 0.859375 -2.328125 1.203125l2.59375 3.609375q0.890625 1.25 1.53125 1.65625q0.640625 0.40625 1.671875 0.515625l0 0.34375zm-8.9375 -6.46875q0.171875 0 0.296875 0.015625q0.140625 0 0.21875 0q1.796875 0 2.703125 -0.78125q0.921875 -0.78125 0.921875 -1.984375q0 -1.1875 -0.734375 -1.921875q-0.734375 -0.734375 -1.953125 -0.734375q-0.53125 0 -1.453125 0.171875l0 5.234375zm12.427948 0.578125l0 3.65625q0 1.1875 0.265625 1.484375q0.359375 0.40625 1.0625 0.40625l0.484375 0l0 0.34375l-5.390625 0l0 -0.34375l0.46875 0q0.8125 0 1.15625 -0.515625q0.171875 -0.296875 0.171875 -1.375l0 -8.125q0 -1.1875 -0.25 -1.46875q-0.359375 -0.40625 -1.078125 -0.40625l-0.46875 0l0 -0.34375l4.609375 0q1.6875 0 2.65625 0.34375q0.984375 0.34375 1.65625 1.171875q0.671875 0.828125 0.671875 1.96875q0 1.53125 -1.015625 2.5q-1.015625 0.96875 -2.875 0.96875q-0.453125 0 -0.984375 -0.0625q-0.53125 -0.078125 -1.140625 -0.203125zm0 -0.53125q0.5 0.09375 0.875 0.140625q0.390625 0.046875 0.65625 0.046875q0.96875 0 1.65625 -0.75q0.703125 -0.75 0.703125 -1.9375q0 -0.8125 -0.34375 -1.515625q-0.328125 -0.703125 -0.9375 -1.046875q-0.609375 -0.34375 -1.390625 -0.34375q-0.46875 0 -1.21875 0.171875l0 5.234375zm17.922592 -6.453125l0.296875 4.28125l-0.296875 0q-0.578125 -1.921875 -1.640625 -2.765625q-1.0625 -0.84375 -2.5625 -0.84375q-1.25 0 -2.265625 0.640625q-1.0 0.640625 -1.59375 2.03125q-0.578125 1.390625 -0.578125 3.453125q0 1.703125 0.546875 2.96875q0.546875 1.25 1.640625 1.921875q1.109375 0.65625 2.515625 0.65625q1.234375 0 2.171875 -0.515625q0.9375 -0.53125 2.0625 -2.09375l0.28125 0.1875q-0.953125 1.6875 -2.21875 2.46875q-1.25 0.765625 -2.984375 0.765625q-3.125 0 -4.84375 -2.3125q-1.28125 -1.71875 -1.28125 -4.0625q0 -1.890625 0.84375 -3.46875q0.84375 -1.578125 2.3125 -2.4375q1.484375 -0.875 3.25 -0.875q1.359375 0 2.6875 0.671875q0.390625 0.203125 0.546875 0.203125q0.25 0 0.4375 -0.171875q0.25 -0.25 0.34375 -0.703125l0.328125 0zm14.3888855 0l0 4.359375l-0.34375 0q-0.171875 -1.25 -0.609375 -1.984375q-0.421875 -0.75 -1.21875 -1.1875q-0.796875 -0.4375 -1.65625 -0.4375q-0.96875 0 -1.609375 0.59375q-0.625 0.578125 -0.625 1.328125q0 0.578125 0.40625 1.0625q0.578125 0.6875 2.734375 1.84375q1.765625 0.953125 2.40625 1.46875q0.640625 0.5 0.984375 1.1875q0.359375 0.671875 0.359375 1.4375q0 1.421875 -1.109375 2.453125q-1.109375 1.03125 -2.859375 1.03125q-0.546875 0 -1.015625 -0.078125q-0.296875 -0.046875 -1.203125 -0.328125q-0.90625 -0.296875 -1.140625 -0.296875q-0.234375 0 -0.375 0.140625q-0.125 0.125 -0.1875 0.5625l-0.34375 0l0 -4.3125l0.34375 0q0.234375 1.359375 0.640625 2.03125q0.40625 0.671875 1.25 1.125q0.84375 0.4375 1.84375 0.4375q1.15625 0 1.828125 -0.609375q0.671875 -0.609375 0.671875 -1.453125q0 -0.453125 -0.25 -0.921875q-0.25 -0.484375 -0.796875 -0.890625q-0.359375 -0.28125 -1.984375 -1.1875q-1.609375 -0.90625 -2.296875 -1.4375q-0.671875 -0.546875 -1.03125 -1.1875q-0.34375 -0.65625 -0.34375 -1.4375q0 -1.34375 1.03125 -2.328125q1.046875 -0.984375 2.65625 -0.984375q1.0 0 2.125 0.5q0.515625 0.234375 0.734375 0.234375q0.234375 0 0.390625 -0.140625q0.15625 -0.15625 0.25 -0.59375l0.34375 0zm3.6725922 7.578125q0 1.890625 0.921875 2.96875q0.9375 1.078125 2.1875 1.078125q0.828125 0 1.4375 -0.453125q0.625 -0.46875 1.046875 -1.578125l0.28125 0.1875q-0.1875 1.265625 -1.125 2.3125q-0.9375 1.046875 -2.34375 1.046875q-1.53125 0 -2.625 -1.1875q-1.09375 -1.203125 -1.09375 -3.21875q0 -2.171875 1.109375 -3.390625q1.125 -1.234375 2.8125 -1.234375q1.4375 0 2.34375 0.953125q0.921875 0.9375 0.921875 2.515625l-5.875 0zm0 -0.53125l3.9375 0q-0.046875 -0.828125 -0.1875 -1.15625q-0.234375 -0.515625 -0.703125 -0.8125q-0.453125 -0.296875 -0.953125 -0.296875q-0.765625 0 -1.375 0.59375q-0.609375 0.59375 -0.71875 1.671875zm9.343033 -2.921875l0 1.90625q1.0625 -1.90625 2.1875 -1.90625q0.515625 0 0.84375 0.3125q0.34375 0.3125 0.34375 0.71875q0 0.359375 -0.25 0.609375q-0.234375 0.25 -0.578125 0.25q-0.3125 0 -0.71875 -0.3125q-0.40625 -0.328125 -0.59375 -0.328125q-0.171875 0 -0.375 0.1875q-0.40625 0.375 -0.859375 1.25l0 4.078125q0 0.703125 0.171875 1.0625q0.125 0.25 0.421875 0.421875q0.3125 0.171875 0.890625 0.171875l0 0.328125l-4.34375 0l0 -0.328125q0.640625 0 0.953125 -0.203125q0.234375 -0.15625 0.328125 -0.484375q0.046875 -0.15625 0.046875 -0.890625l0 -3.296875q0 -1.484375 -0.0625 -1.765625q-0.0625 -0.28125 -0.21875 -0.40625q-0.15625 -0.140625 -0.40625 -0.140625q-0.28125 0 -0.640625 0.140625l-0.09375 -0.328125l2.5625 -1.046875l0.390625 0zm3.290802 0.25l4.0 0l0 0.34375l-0.265625 0q-0.359375 0 -0.546875 0.1875q-0.1875 0.171875 -0.1875 0.46875q0 0.3125 0.1875 0.765625l1.984375 4.6875l1.984375 -4.859375q0.21875 -0.53125 0.21875 -0.796875q0 -0.125 -0.078125 -0.203125q-0.109375 -0.140625 -0.265625 -0.1875q-0.15625 -0.0625 -0.640625 -0.0625l0 -0.34375l2.78125 0l0 0.34375q-0.484375 0.03125 -0.671875 0.203125q-0.328125 0.265625 -0.578125 0.921875l-3.015625 7.296875l-0.390625 0l-3.03125 -7.171875q-0.203125 -0.5 -0.390625 -0.71875q-0.1875 -0.21875 -0.46875 -0.375q-0.15625 -0.078125 -0.625 -0.15625l0 -0.34375zm11.1875 3.203125q0 1.890625 0.921875 2.96875q0.9375 1.078125 2.1875 1.078125q0.828125 0 1.4375 -0.453125q0.625 -0.46875 1.046875 -1.578125l0.28125 0.1875q-0.1875 1.265625 -1.125 2.3125q-0.9375 1.046875 -2.34375 1.046875q-1.53125 0 -2.625 -1.1875q-1.09375 -1.203125 -1.09375 -3.21875q0 -2.171875 1.109375 -3.390625q1.125 -1.234375 2.8125 -1.234375q1.4375 0 2.34375 0.953125q0.921875 0.9375 0.921875 2.515625l-5.875 0zm0 -0.53125l3.9375 0q-0.046875 -0.828125 -0.1875 -1.15625q-0.234375 -0.515625 -0.703125 -0.8125q-0.453125 -0.296875 -0.953125 -0.296875q-0.765625 0 -1.375 0.59375q-0.609375 0.59375 -0.71875 1.671875zm9.343033 -2.921875l0 1.90625q1.0625 -1.90625 2.1874924 -1.90625q0.515625 0 0.84375 0.3125q0.34375 0.3125 0.34375 0.71875q0 0.359375 -0.25 0.609375q-0.234375 0.25 -0.578125 0.25q-0.3125 0 -0.7187424 -0.3125q-0.40625 -0.328125 -0.59375 -0.328125q-0.171875 0 -0.375 0.1875q-0.40625 0.375 -0.859375 1.25l0 4.078125q0 0.703125 0.171875 1.0625q0.125 0.25 0.421875 0.421875q0.3125 0.171875 0.890625 0.171875l0 0.328125l-4.34375 0l0 -0.328125q0.640625 0 0.953125 -0.203125q0.234375 -0.15625 0.328125 -0.484375q0.046875 -0.15625 0.046875 -0.890625l0 -3.296875q0 -1.484375 -0.0625 -1.765625q-0.0625 -0.28125 -0.21875 -0.40625q-0.15625 -0.140625 -0.40625 -0.140625q-0.28125 0 -0.640625 0.140625l-0.09375 -0.328125l2.5625 -1.046875l0.390625 0z" fill-rule="nonzero"></path><path fill="#000000" d="m37.008614 237.10332l0 0.34375q-1.40625 -0.703125 -2.34375 -1.65625q-1.328125 -1.34375 -2.0625 -3.171875q-0.7187519 -1.828125 -0.7187519 -3.796875q0 -2.875 1.4218769 -5.234375q1.421875 -2.375 3.703125 -3.390625l0 0.390625q-1.140625 0.625 -1.875 1.71875q-0.734375 1.09375 -1.109375 2.78125q-0.359375 1.671875 -0.359375 3.5q0 1.984375 0.3125 3.609375q0.25 1.28125 0.578125 2.046875q0.34375 0.78125 0.921875 1.5q0.59375 0.71875 1.53125 1.359375zm11.962677 -16.59375l0.328125 3.984375l-0.328125 0q-0.484375 -1.484375 -1.265625 -2.25q-1.125 -1.078125 -2.890625 -1.078125q-2.390625 0 -3.65625 1.90625q-1.046875 1.59375 -1.046875 3.8125q0 1.8125 0.6875 3.296875q0.703125 1.484375 1.828125 2.171875q1.140625 0.6875 2.328125 0.6875q0.6875 0 1.328125 -0.171875q0.65625 -0.1875 1.265625 -0.53125l0 -3.625q0 -0.953125 -0.140625 -1.234375q-0.140625 -0.296875 -0.453125 -0.453125q-0.296875 -0.15625 -1.0625 -0.15625l0 -0.34375l4.875 0l0 0.34375l-0.234375 0q-0.71875 0 -0.984375 0.484375q-0.1875 0.34375 -0.1875 1.359375l0 3.84375q-1.078125 0.578125 -2.125 0.84375q-1.03125 0.265625 -2.296875 0.265625q-3.640625 0 -5.53125 -2.328125q-1.421875 -1.75 -1.421875 -4.046875q0 -1.65625 0.796875 -3.1875q0.9375 -1.8125 2.59375 -2.78125q1.390625 -0.8125 3.265625 -0.8125q0.6875 0 1.25 0.125q0.5625 0.109375 1.59375 0.484375q0.515625 0.203125 0.6875 0.203125q0.1875 0 0.3125 -0.15625q0.125 -0.171875 0.140625 -0.65625l0.34375 0zm6.566696 4.125q1.9375 0 3.09375 1.46875q1.0 1.25 1.0 2.875q0 1.140625 -0.546875 2.3125q-0.546875 1.171875 -1.515625 1.765625q-0.953125 0.59375 -2.140625 0.59375q-1.90625 0 -3.046875 -1.53125q-0.953125 -1.296875 -0.953125 -2.90625q0 -1.15625 0.578125 -2.3125q0.578125 -1.15625 1.515625 -1.703125q0.953125 -0.5625 2.015625 -0.5625zm-0.28125 0.609375q-0.5 0 -1.0 0.296875q-0.484375 0.28125 -0.796875 1.015625q-0.3125 0.734375 -0.3125 1.890625q0 1.84375 0.734375 3.1875q0.75 1.34375 1.953125 1.34375q0.90625 0 1.484375 -0.734375q0.578125 -0.75 0.578125 -2.546875q0 -2.265625 -0.96875 -3.5625q-0.65625 -0.890625 -1.671875 -0.890625zm5.28125 -4.65625l0 -0.390625q1.421875 0.6875 2.359375 1.640625q1.3125 1.34375 2.03125 3.171875q0.734375 1.828125 0.734375 3.796875q0 2.875 -1.421875 5.25q-1.40625 2.375 -3.703125 3.390625l0 -0.34375q1.140625 -0.640625 1.875 -1.734375q0.75 -1.078125 1.09375 -2.765625q0.359375 -1.6875 0.359375 -3.515625q0 -1.96875 -0.296875 -3.609375q-0.234375 -1.28125 -0.578125 -2.046875q-0.34375 -0.765625 -0.921875 -1.484375q-0.578125 -0.71875 -1.53125 -1.359375z" fill-rule="nonzero"></path><path fill="#6aa84f" d="m22.102362 23.653543l184.47244 0l0 138.55118l-184.47244 0z" fill-rule="evenodd"></path><path stroke="#000000" stroke-width="1.0" stroke-linejoin="round" stroke-linecap="butt" d="m22.102362 23.653543l184.47244 0l0 138.55118l-184.47244 0z" fill-rule="evenodd"></path><path fill="#000000" d="m33.96174 47.47979q-0.765625 -0.390625 -1.1875 -1.0625q-0.421875 -0.6875 -0.421875 -1.515625q0 -1.265625 0.953125 -2.171875q0.953125 -0.90625 2.4375 -0.90625q1.21875 0 2.109375 0.59375l1.796875 0q0.390625 0 0.453125 0.03125q0.078125 0.015625 0.09375 0.078125q0.0625 0.078125 0.0625 0.296875q0 0.234375 -0.046875 0.328125q-0.03125 0.046875 -0.109375 0.078125q-0.0625 0.03125 -0.453125 0.03125l-1.109375 0q0.515625 0.65625 0.515625 1.703125q0 1.1875 -0.90625 2.03125q-0.90625 0.84375 -2.4375 0.84375q-0.625 0 -1.28125 -0.1875q-0.421875 0.359375 -0.5625 0.625q-0.140625 0.25 -0.140625 0.4375q0 0.15625 0.15625 0.3125q0.15625 0.140625 0.59375 0.203125q0.265625 0.046875 1.296875 0.078125q1.921875 0.046875 2.484375 0.125q0.859375 0.125 1.375 0.640625q0.515625 0.515625 0.515625 1.28125q0 1.046875 -0.984375 1.96875q-1.453125 1.34375 -3.78125 1.34375q-1.78125 0 -3.015625 -0.796875q-0.7031269 -0.46875 -0.7031269 -0.96875q0 -0.21875 0.109375 -0.4375q0.15625 -0.34375 0.6406269 -0.96875q0.0625 -0.078125 0.953125 -1.0q-0.484375 -0.28125 -0.6875 -0.5q-0.203125 -0.234375 -0.203125 -0.53125q0 -0.3125 0.265625 -0.75q0.265625 -0.4375 1.21875 -1.234375zm1.625 -5.203125q-0.6875 0 -1.15625 0.546875q-0.46875 0.546875 -0.46875 1.671875q0 1.46875 0.640625 2.28125q0.484375 0.609375 1.21875 0.609375q0.703125 0 1.15625 -0.53125q0.46875 -0.53125 0.46875 -1.65625q0 -1.484375 -0.640625 -2.3125q-0.484375 -0.609375 -1.21875 -0.609375zm-1.703125 8.296875q-0.4375 0.46875 -0.671875 0.875q-0.21875 0.421875 -0.21875 0.765625q0 0.4375 0.546875 0.765625q0.921875 0.578125 2.671875 0.578125q1.671875 0 2.46875 -0.59375q0.796875 -0.578125 0.796875 -1.25q0 -0.484375 -0.484375 -0.6875q-0.484375 -0.203125 -1.90625 -0.234375q-2.09375 -0.0625 -3.203125 -0.21875zm19.390625 0l-3.359375 0l-4.265625 -5.875q-0.46875 0.015625 -0.765625 0.015625q-0.125 0 -0.265625 0q-0.140625 -0.015625 -0.28125 -0.015625l0 3.640625q0 1.1875 0.265625 1.484375q0.34375 0.40625 1.046875 0.40625l0.5 0l0 0.34375l-5.390625 0l0 -0.34375l0.46875 0q0.796875 0 1.140625 -0.515625q0.203125 -0.296875 0.203125 -1.375l0 -8.125q0 -1.1875 -0.265625 -1.46875q-0.359375 -0.40625 -1.078125 -0.40625l-0.46875 0l0 -0.34375l4.578125 0q2.0 0 2.953125 0.296875q0.953125 0.28125 1.609375 1.078125q0.671875 0.78125 0.671875 1.859375q0 1.15625 -0.765625 2.015625q-0.75 0.859375 -2.328125 1.203125l2.59375 3.609375q0.890625 1.25 1.53125 1.65625q0.640625 0.40625 1.671875 0.515625l0 0.34375zm-8.9375 -6.46875q0.171875 0 0.296875 0.015625q0.140625 0 0.21875 0q1.796875 0 2.703125 -0.78125q0.921875 -0.78125 0.921875 -1.984375q0 -1.1875 -0.734375 -1.921875q-0.734375 -0.734375 -1.953125 -0.734375q-0.53125 0 -1.453125 0.171875l0 5.234375zm12.427948 0.578125l0 3.65625q0 1.1875 0.265625 1.484375q0.359375 0.40625 1.0625 0.40625l0.484375 0l0 0.34375l-5.390625 0l0 -0.34375l0.46875 0q0.8125 0 1.15625 -0.515625q0.171875 -0.296875 0.171875 -1.375l0 -8.125q0 -1.1875 -0.25 -1.46875q-0.359375 -0.40625 -1.078125 -0.40625l-0.46875 0l0 -0.34375l4.609375 0q1.6875 0 2.65625 0.34375q0.984375 0.34375 1.65625 1.171875q0.671875 0.828125 0.671875 1.96875q0 1.53125 -1.015625 2.5q-1.015625 0.96875 -2.875 0.96875q-0.453125 0 -0.984375 -0.0625q-0.53125 -0.078125 -1.140625 -0.203125zm0 -0.53125q0.5 0.09375 0.875 0.140625q0.390625 0.046875 0.65625 0.046875q0.96875 0 1.65625 -0.75q0.703125 -0.75 0.703125 -1.9375q0 -0.8125 -0.34375 -1.515625q-0.328125 -0.703125 -0.9375 -1.046875q-0.609375 -0.34375 -1.390625 -0.34375q-0.46875 0 -1.21875 0.171875l0 5.234375zm17.922592 -6.453125l0.296875 4.28125l-0.296875 0q-0.578125 -1.921875 -1.640625 -2.765625q-1.0625 -0.84375 -2.5625 -0.84375q-1.25 0 -2.265625 0.640625q-1.0 0.640625 -1.59375 2.03125q-0.578125 1.390625 -0.578125 3.453125q0 1.703125 0.546875 2.96875q0.546875 1.25 1.640625 1.921875q1.109375 0.65625 2.515625 0.65625q1.234375 0 2.171875 -0.515625q0.9375 -0.53125 2.0625 -2.09375l0.28125 0.1875q-0.953125 1.6875 -2.21875 2.46875q-1.25 0.765625 -2.984375 0.765625q-3.125 0 -4.84375 -2.3125q-1.28125 -1.71875 -1.28125 -4.0625q0 -1.890625 0.84375 -3.46875q0.84375 -1.578125 2.3125 -2.4375q1.484375 -0.875 3.25 -0.875q1.359375 0 2.6875 0.671875q0.390625 0.203125 0.546875 0.203125q0.25 0 0.4375 -0.171875q0.25 -0.25 0.34375 -0.703125l0.328125 0zm17.107635 0l0.296875 4.28125l-0.296875 0q-0.578125 -1.921875 -1.640625 -2.765625q-1.0625 -0.84375 -2.5625 -0.84375q-1.25 0 -2.265625 0.640625q-1.0 0.640625 -1.59375 2.03125q-0.578125 1.390625 -0.578125 3.453125q0 1.703125 0.546875 2.96875q0.546875 1.25 1.640625 1.921875q1.109375 0.65625 2.515625 0.65625q1.234375 0 2.171875 -0.515625q0.9375 -0.53125 2.0625 -2.09375l0.28125 0.1875q-0.953125 1.6875 -2.21875 2.46875q-1.25 0.765625 -2.984375 0.765625q-3.125 0 -4.84375 -2.3125q-1.28125 -1.71875 -1.28125 -4.0625q0 -1.890625 0.84375 -3.46875q0.84375 -1.578125 2.3125 -2.4375q1.484375 -0.875 3.25 -0.875q1.359375 0 2.6875 0.671875q0.390625 0.203125 0.546875 0.203125q0.25 0 0.4375 -0.171875q0.25 -0.25 0.34375 -0.703125l0.328125 0zm4.521698 -0.3125l0 11.265625q0 0.796875 0.109375 1.0625q0.125 0.25 0.359375 0.390625q0.25 0.140625 0.90625 0.140625l0 0.328125l-4.171875 0l0 -0.328125q0.59375 0 0.796875 -0.125q0.21875 -0.125 0.328125 -0.390625q0.125 -0.28125 0.125 -1.078125l0 -7.71875q0 -1.4375 -0.0625 -1.765625q-0.0625 -0.328125 -0.203125 -0.453125q-0.140625 -0.125 -0.359375 -0.125q-0.25 0 -0.625 0.15625l-0.15625 -0.328125l2.53125 -1.03125l0.421875 0zm4.417679 0q0.390625 0 0.65625 0.28125q0.28125 0.265625 0.28125 0.65625q0 0.390625 -0.28125 0.671875q-0.265625 0.265625 -0.65625 0.265625q-0.390625 0 -0.671875 -0.265625q-0.265625 -0.28125 -0.265625 -0.671875q0 -0.390625 0.265625 -0.65625q0.28125 -0.28125 0.671875 -0.28125zm0.78125 4.4375l0 6.828125q0 0.796875 0.109375 1.0625q0.109375 0.265625 0.34375 0.40625q0.234375 0.125 0.828125 0.125l0 0.328125l-4.125 0l0 -0.328125q0.625 0 0.828125 -0.125q0.21875 -0.125 0.34375 -0.390625q0.125 -0.28125 0.125 -1.078125l0 -3.28125q0 -1.375 -0.078125 -1.78125q-0.0625 -0.296875 -0.203125 -0.40625q-0.140625 -0.125 -0.390625 -0.125q-0.25 0 -0.625 0.140625l-0.125 -0.328125l2.5625 -1.046875l0.40625 0zm3.6676788 3.453125q0 1.890625 0.921875 2.96875q0.9375 1.078125 2.1875 1.078125q0.828125 0 1.4375 -0.453125q0.625 -0.46875 1.046875 -1.578125l0.28125 0.1875q-0.1875 1.265625 -1.125 2.3125q-0.9375 1.046875 -2.34375 1.046875q-1.53125 0 -2.625 -1.1875q-1.09375 -1.203125 -1.09375 -3.21875q0 -2.171875 1.109375 -3.390625q1.125 -1.234375 2.8125 -1.234375q1.4375 0 2.34375 0.953125q0.921875 0.9375 0.921875 2.515625l-5.875 0zm0 -0.53125l3.9375 0q-0.046875 -0.828125 -0.1875 -1.15625q-0.234375 -0.515625 -0.703125 -0.8125q-0.453125 -0.296875 -0.953125 -0.296875q-0.765625 0 -1.375 0.59375q-0.609375 0.59375 -0.71875 1.671875zm9.343033 -1.125q1.484375 -1.796875 2.84375 -1.796875q0.6875 0 1.1875 0.359375q0.5 0.34375 0.796875 1.140625q0.21875 0.546875 0.21875 1.703125l0 3.625q0 0.8125 0.125 1.09375q0.09375 0.234375 0.3125 0.375q0.234375 0.125 0.859375 0.125l0 0.328125l-4.203125 0l0 -0.328125l0.171875 0q0.59375 0 0.828125 -0.1875q0.234375 -0.1875 0.328125 -0.53125q0.046875 -0.140625 0.046875 -0.875l0 -3.484375q0 -1.15625 -0.3125 -1.671875q-0.296875 -0.53125 -1.015625 -0.53125q-1.09375 0 -2.1875 1.203125l0 4.484375q0 0.859375 0.09375 1.0625q0.125 0.28125 0.34375 0.40625q0.234375 0.125 0.9375 0.125l0 0.328125l-4.203125 0l0 -0.328125l0.1875 0q0.640625 0 0.875 -0.328125q0.234375 -0.34375 0.234375 -1.265625l0 -3.15625q0 -1.53125 -0.078125 -1.859375q-0.0625 -0.34375 -0.21875 -0.453125q-0.140625 -0.125 -0.375 -0.125q-0.265625 0 -0.625 0.140625l-0.140625 -0.328125l2.5625 -1.046875l0.40625 0l0 1.796875zm9.3125 -4.34375l0 2.796875l1.984375 0l0 0.65625l-1.984375 0l0 5.5q0 0.828125 0.234375 1.125q0.234375 0.28125 0.609375 0.28125q0.3125 0 0.59375 -0.1875q0.28125 -0.1875 0.4375 -0.5625l0.375 0q-0.328125 0.90625 -0.921875 1.375q-0.59375 0.453125 -1.234375 0.453125q-0.421875 0 -0.828125 -0.234375q-0.40625 -0.234375 -0.609375 -0.671875q-0.1875 -0.453125 -0.1875 -1.375l0 -5.703125l-1.34375 0l0 -0.3125q0.515625 -0.203125 1.046875 -0.6875q0.53125 -0.484375 0.953125 -1.15625q0.203125 -0.359375 0.59375 -1.296875l0.28125 0z" fill-rule="nonzero"></path><path fill="#000000" d="m37.008614 76.29229l0 0.34375q-1.40625 -0.703125 -2.34375 -1.65625q-1.328125 -1.34375 -2.0625 -3.171875q-0.7187519 -1.828125 -0.7187519 -3.796875q0 -2.875 1.4218769 -5.234375q1.421875 -2.375 3.703125 -3.390625l0 0.390625q-1.140625 0.625 -1.875 1.71875q-0.734375 1.09375 -1.109375 2.78125q-0.359375 1.671875 -0.359375 3.5q0 1.984375 0.3125 3.609375q0.25 1.28125 0.578125 2.046875q0.34375 0.78125 0.921875 1.5q0.59375 0.71875 1.53125 1.359375zm2.197052 -15.953125l0 -0.34375l5.390625 0l0 0.34375l-0.453125 0q-0.765625 0 -1.125 0.453125q-0.21875 0.296875 -0.21875 1.421875l0 6.15625q0 1.421875 -0.3125 2.3125q-0.3125 0.875 -1.078125 1.53125q-0.75 0.640625 -1.828125 0.640625q-0.875 0 -1.375 -0.421875q-0.5 -0.4375 -0.5 -0.984375q0 -0.46875 0.234375 -0.6875q0.296875 -0.296875 0.71875 -0.296875q0.296875 0 0.53125 0.203125q0.234375 0.1875 0.59375 1.03125q0.21875 0.5 0.546875 0.5q0.25 0 0.46875 -0.296875q0.21875 -0.3125 0.21875 -1.09375l0 -8.59375q0 -0.953125 -0.125 -1.25q-0.09375 -0.234375 -0.390625 -0.40625q-0.390625 -0.21875 -0.84375 -0.21875l-0.453125 0zm10.775894 11.015625q-1.3125 1.0 -1.640625 1.15625q-0.5 0.234375 -1.0625 0.234375q-0.890625 0 -1.46875 -0.59375q-0.5625 -0.609375 -0.5625 -1.59375q0 -0.625 0.28125 -1.078125q0.390625 -0.625 1.328125 -1.171875q0.9375 -0.5625 3.125 -1.359375l0 -0.34375q0 -1.265625 -0.40625 -1.734375q-0.390625 -0.484375 -1.171875 -0.484375q-0.578125 0 -0.921875 0.3125q-0.359375 0.328125 -0.359375 0.734375l0.015625 0.53125q0 0.4375 -0.21875 0.671875q-0.203125 0.21875 -0.5625 0.21875q-0.34375 0 -0.5625 -0.234375q-0.21875 -0.25 -0.21875 -0.65625q0 -0.796875 0.8125 -1.46875q0.828125 -0.671875 2.296875 -0.671875q1.125 0 1.859375 0.375q0.546875 0.296875 0.796875 0.90625q0.171875 0.40625 0.171875 1.640625l0 2.875q0 1.21875 0.046875 1.5q0.046875 0.265625 0.15625 0.359375q0.109375 0.09375 0.25 0.09375q0.140625 0 0.25 -0.0625q0.203125 -0.125 0.75 -0.6875l0 0.53125q-1.03125 1.390625 -1.984375 1.390625q-0.453125 0 -0.71875 -0.3125q-0.265625 -0.328125 -0.28125 -1.078125zm0 -0.609375l0 -3.234375q-1.390625 0.546875 -1.8125 0.78125q-0.734375 0.40625 -1.046875 0.859375q-0.3125 0.4375 -0.3125 0.96875q0 0.671875 0.390625 1.109375q0.40625 0.4375 0.921875 0.4375q0.71875 0 1.859375 -0.921875zm3.0305328 -6.671875l4.0 0l0 0.34375l-0.265625 0q-0.359375 0 -0.546875 0.1875q-0.1875 0.171875 -0.1875 0.46875q0 0.3125 0.1875 0.765625l1.984375 4.6875l1.984375 -4.859375q0.21875 -0.53125 0.21875 -0.796875q0 -0.125 -0.078125 -0.203125q-0.109375 -0.140625 -0.265625 -0.1875q-0.15625 -0.0625 -0.640625 -0.0625l0 -0.34375l2.78125 0l0 0.34375q-0.484375 0.03125 -0.671875 0.203125q-0.328125 0.265625 -0.578125 0.921875l-3.015625 7.296875l-0.390625 0l-3.03125 -7.171875q-0.203125 -0.5 -0.390625 -0.71875q-0.1875 -0.21875 -0.46875 -0.375q-0.15625 -0.078125 -0.625 -0.15625l0 -0.34375zm14.578125 7.28125q-1.3125 1.0 -1.640625 1.15625q-0.5 0.234375 -1.0625 0.234375q-0.890625 0 -1.46875 -0.59375q-0.5625 -0.609375 -0.5625 -1.59375q0 -0.625 0.28125 -1.078125q0.390625 -0.625 1.328125 -1.171875q0.9375 -0.5625 3.125 -1.359375l0 -0.34375q0 -1.265625 -0.40625 -1.734375q-0.390625 -0.484375 -1.171875 -0.484375q-0.578125 0 -0.921875 0.3125q-0.359375 0.328125 -0.359375 0.734375l0.015625 0.53125q0 0.4375 -0.21875 0.671875q-0.203125 0.21875 -0.5625 0.21875q-0.34375 0 -0.5625 -0.234375q-0.21875 -0.25 -0.21875 -0.65625q0 -0.796875 0.8125 -1.46875q0.828125 -0.671875 2.296875 -0.671875q1.125 0 1.859375 0.375q0.546875 0.296875 0.796875 0.90625q0.171875 0.40625 0.171875 1.640625l0 2.875q0 1.21875 0.046875 1.5q0.046875 0.265625 0.15625 0.359375q0.109375 0.09375 0.25 0.09375q0.140625 0 0.25 -0.0625q0.203125 -0.125 0.75 -0.6875l0 0.53125q-1.03125 1.390625 -1.984375 1.390625q-0.453125 0 -0.71875 -0.3125q-0.265625 -0.328125 -0.28125 -1.078125zm0 -0.609375l0 -3.234375q-1.390625 0.546875 -1.8125 0.78125q-0.734375 0.40625 -1.046875 0.859375q-0.3125 0.4375 -0.3125 0.96875q0 0.671875 0.390625 1.109375q0.40625 0.4375 0.921875 0.4375q0.71875 0 1.859375 -0.921875zm3.2961578 -10.96875l0 -0.390625q1.421875 0.6875 2.359375 1.640625q1.3125 1.34375 2.03125 3.171875q0.734375 1.828125 0.734375 3.796875q0 2.875 -1.421875 5.25q-1.40625 2.375 -3.703125 3.390625l0 -0.34375q1.140625 -0.640625 1.875 -1.734375q0.75 -1.078125 1.09375 -2.765625q0.359375 -1.6875 0.359375 -3.515625q0 -1.96875 -0.296875 -3.609375q-0.234375 -1.28125 -0.578125 -2.046875q-0.34375 -0.765625 -0.921875 -1.484375q-0.578125 -0.71875 -1.53125 -1.359375z" fill-rule="nonzero"></path></g></svg>

